<svg width="127" height="27" viewBox="0 0 127 27" fill="none" xmlns="http://www.w3.org/2000/svg">
<path d="M109.482 0.350098H96.7308V1.8831H109.482V0.350098ZM8.20798 10.439C7.0963 9.90958 5.61193 9.90958 3.8491 9.90958C2.04128 9.90958 0.903906 9.90958 0 9.84154C0.115666 11.4957 0.18635 12.5992 0.18635 16.0458C0.18635 19.2862 0.162789 22.5266 0 25.7435C0.323436 25.6755 0.60189 25.6053 1.22948 25.6053C1.90206 25.6053 2.18051 25.6734 2.57463 25.7435C2.45897 23.5153 2.38828 21.8377 2.41184 18.6653C2.7824 18.6887 3.15296 18.7121 3.52352 18.7121C4.93721 18.7121 6.90781 18.5293 8.13729 17.7468C9.08832 17.1494 10.3628 16.0012 10.3628 13.909C10.3649 12.3696 9.62381 11.1066 8.20798 10.439ZM2.41399 17.7022C2.39042 15.2889 2.39042 12.9458 2.41399 10.9684C2.85523 10.9004 3.38858 10.877 3.75913 10.877C4.9415 10.877 6.26308 11.1534 7.05132 11.8891C7.63179 12.4398 7.83956 13.2456 7.83956 14.1408C7.83742 17.6554 4.73158 17.7702 2.41399 17.7022ZM24.4205 9.6353C18.74 9.6353 15.4714 13.0139 15.4714 17.9084C15.4714 23.0092 19.1341 26.0901 24.187 26.0901C29.7047 26.0901 33.1361 22.4351 33.1361 17.6341C33.1382 12.461 29.2656 9.6353 24.4205 9.6353ZM24.2362 25.1014C20.6656 25.1014 18.1167 22.3671 18.1167 17.885C18.1167 12.6907 21.2225 10.624 24.3069 10.624C25.8834 10.624 28.2246 11.2448 29.4776 13.3349C30.2894 14.6914 30.4972 16.5519 30.4972 17.7468C30.495 22.4585 27.899 25.1014 24.2362 25.1014ZM56.6076 25.6075C57.0253 25.6075 57.2802 25.6542 57.9057 25.7457C57.8136 25.448 57.79 25.2864 57.7664 25.1248C57.1645 21.4252 56.3977 14.6 55.8665 9.75011C55.6802 9.7735 55.5409 9.79689 55.4253 9.79689C55.2861 9.79689 55.1704 9.7735 55.0076 9.75011C54.6135 10.624 54.4978 10.8536 53.9409 11.9337C52.5722 14.5086 52.1567 15.2655 48.4232 22.1375C46.9388 19.771 42.3958 11.2682 41.7232 9.75011C41.5604 9.7735 41.3762 9.79689 41.2605 9.79689C41.1213 9.79689 40.9821 9.7735 40.8664 9.75011C40.333 14.7829 38.7094 24.6634 38.4781 25.7435C38.7094 25.6968 39.1271 25.6053 39.5919 25.6053C39.8939 25.6053 40.1017 25.6521 40.4723 25.7435C40.4487 23.6747 40.8664 17.6086 41.4233 14.162C42.9527 16.8049 44.8076 20.3217 46.4312 23.4238C46.8489 24.2275 47.1038 24.8016 47.5215 25.7457C47.6371 25.7223 47.7292 25.6989 47.8235 25.6989C47.9156 25.6989 48.0312 25.7223 48.149 25.7457C48.4275 25.0334 48.6353 24.4593 49.355 23.0113C50.8843 19.9538 52.4844 16.9452 54.153 13.9579C54.2215 14.5788 55.149 23.2877 55.1725 25.7478C55.5645 25.6755 55.9351 25.6075 56.6076 25.6075ZM74.6986 13.909C74.6986 12.3696 73.9575 11.1045 72.5417 10.439C71.4278 9.90958 69.9456 9.90958 68.1828 9.90958C66.375 9.90958 65.2376 9.90958 64.3337 9.84154C64.4493 11.4957 64.52 12.5992 64.52 16.0458C64.52 19.2862 64.4965 22.5266 64.3337 25.7435C64.6593 25.6755 64.9356 25.6053 65.5632 25.6053C66.2357 25.6053 66.5142 25.6734 66.9083 25.7435C66.7926 23.5153 66.722 21.8377 66.7455 18.6653C67.1161 18.6887 67.4866 18.7121 67.8572 18.7121C69.2709 18.7121 71.2415 18.5293 72.471 17.7468C73.422 17.1494 74.6986 16.0012 74.6986 13.909ZM66.7455 17.7022C66.722 15.2889 66.722 12.9458 66.7455 10.9684C67.1868 10.9004 67.7201 10.877 68.0907 10.877C69.273 10.877 70.5946 11.1534 71.3829 11.8891C71.9633 12.4398 72.1711 13.2456 72.1711 14.1408C72.1711 17.6554 69.0653 17.7702 66.7455 17.7022ZM83.0908 24.5039C83.0672 23.8831 83.0223 22.1375 83.0223 20.9425C83.0223 19.9538 83.0458 18.9205 83.0694 17.9318C83.6499 17.9084 84.3203 17.885 84.9479 17.885C85.9439 17.885 87.3362 17.9531 88.5421 18.1147C88.5185 17.8616 88.45 17.6554 88.45 17.4024C88.45 17.0813 88.4971 16.8729 88.5421 16.6221C86.7343 16.8283 84.9029 16.8049 83.0715 16.7836C83.048 15.5653 83.048 15.291 83.048 13.7963C83.048 12.4398 83.048 12.0507 83.0951 11.1534C84.0911 11.1066 84.5088 11.1066 85.3441 11.1066C87.3619 11.1066 88.1715 11.2448 89.0304 11.4064C88.9833 11.1768 88.9383 10.9918 88.9383 10.6708C88.9383 10.3731 88.9855 10.1201 89.0304 9.86705C87.8481 9.98187 86.6893 10.0053 85.5069 10.0053C83.8833 10.0053 82.2854 10.0053 80.6618 9.86705C80.801 12.1187 80.8482 15.2209 80.8482 17.5193C80.8482 22.5287 80.7325 24.0234 80.5933 25.7457C82.3775 25.6776 84.1875 25.6075 85.9717 25.6075C87.0384 25.6075 88.1287 25.6075 89.1932 25.7457C89.1461 25.516 89.1011 25.3332 89.1011 25.01C89.1011 24.6889 89.1483 24.4806 89.1932 24.2297C86.4515 24.5039 84.5752 24.5039 83.0908 24.5039ZM100.983 9.92659H95.9554L97.1549 11.0237C97.2855 14.4214 97.2855 14.4788 97.2855 17.564C97.2855 21.5634 97.2299 22.635 97.1056 24.5762L95.9554 25.6287H100.983L99.6803 24.438C99.6203 23.0262 99.5582 21.4358 99.5582 18.0466C99.5582 15.6078 99.5946 13.471 99.7017 11.0981L100.983 9.92659ZM110.257 9.92659H105.228L106.419 11.0173C106.55 14.4214 106.55 14.4788 106.55 17.564C106.55 21.5676 106.494 22.6371 106.367 24.5847L105.226 25.6308H110.255L108.944 24.4317C108.884 23.022 108.822 21.4316 108.822 18.0466C108.822 15.61 108.859 13.4774 108.966 11.1066L110.257 9.92659ZM121.978 17.1579C121.931 17.1579 121.862 17.1579 121.862 17.0664C121.862 17.0197 121.909 16.9984 122.28 16.9048C124.019 16.3754 125.294 15.021 125.294 13.2286C125.294 10.4475 122.606 9.69058 120.774 9.69058C118.572 9.69058 117.435 10.6559 116.786 11.23C117.18 11.7807 117.296 12.0337 117.458 12.7927L117.805 12.8161C117.853 12.4015 117.921 11.989 118.292 11.5531C118.662 11.1173 119.406 10.6112 120.425 10.6112C121.931 10.6112 123.045 11.668 123.045 13.5305C123.045 14.9551 122.304 16.7007 120.217 16.7007C119.8 16.7007 119.429 16.6327 119.082 16.5391C119.106 16.7454 119.129 16.907 119.129 17.2046C119.129 17.481 119.106 17.6405 119.082 17.8255C119.429 17.7107 119.684 17.6426 120.172 17.6426C122.027 17.6426 123.649 18.5612 123.649 20.9744C123.649 22.4904 122.931 24.674 120.125 24.674C119.268 24.674 117.876 24.421 116.996 22.905L116.649 22.9284C116.649 23.7789 116.557 24.1234 116.347 24.6528C117.019 25.0206 118.086 25.5947 120.01 25.5947C123.719 25.5947 126.061 23.5259 126.061 20.7916C126.056 17.7787 123.205 17.1579 121.978 17.1579ZM113.605 3.73504C112.862 3.41185 112.215 3.41185 111.459 3.41185H94.878C94.2397 3.41185 93.6464 3.42036 93.0123 3.60959C92.5904 3.73504 92.2048 3.92852 91.8814 4.20068C91.5772 4.45583 91.333 4.77689 91.1681 5.17449C91.016 5.53807 90.9325 5.96544 90.9325 6.4566C90.9325 8.15119 92.2391 9.5056 93.8306 9.5056C95.5291 9.5056 96.4181 8.44887 96.7029 6.75852C96.7029 6.62882 96.7779 6.51401 96.7179 6.41195H95.0001C94.9551 6.49487 94.9208 6.58842 94.8994 6.69686C94.758 7.39851 94.0426 7.79612 93.4086 7.51971C92.6396 7.18802 92.4404 5.96544 93.2565 5.53595C93.6121 5.34884 94.6038 5.35096 95.0879 5.35096V5.34884L111.737 5.33396C112.541 5.33608 113.474 5.42113 113.474 6.48849C113.474 7.71319 111.65 8.37232 111.245 6.4077H109.4C109.478 7.90668 110.474 9.00806 111.416 9.36101C112.86 9.90107 114.466 9.15477 115.057 7.65153C115.199 7.2922 115.278 6.89885 115.278 6.48849C115.28 4.88532 114.464 4.10925 113.605 3.73504Z" fill="#212957"/>
</svg>
